<?xml version="1.0" encoding="utf-8"?>
<!-- Generator: Adobe Illustrator 17.0.0, SVG Export Plug-In . SVG Version: 6.00 Build 0)  -->
<!DOCTYPE svg PUBLIC "-//W3C//DTD SVG 1.1//EN" "http://www.w3.org/Graphics/SVG/1.1/DTD/svg11.dtd">
<svg version="1.1" id="Layer_1" xmlns="http://www.w3.org/2000/svg" xmlns:xlink="http://www.w3.org/1999/xlink" x="0px" y="0px"
	 width="550px" height="370px" viewBox="0 0 550 370" enable-background="new 0 0 550 370" xml:space="preserve">
<rect x="-3.282" y="-3.497" fill="#01161E" width="556.564" height="376.995"/>
<g>
	<polygon fill="#59D3A2" points="193.283,218.31 193.283,247.988 188.449,247.988 188.449,234.662 174.493,234.662 174.493,247.988 
		169.7,247.988 169.7,218.31 174.493,218.31 174.493,230.753 188.449,230.753 188.449,218.31 	"/>
	<polygon fill="#59D3A2" points="208.079,222.177 208.079,231.173 219.008,231.173 219.008,234.872 208.079,234.872 
		208.079,244.078 220.27,244.078 220.27,247.987 203.287,247.987 203.287,218.31 220.27,218.31 220.27,222.177 	"/>
	<path fill="#59D3A2" d="M246.836,241.556h-12.527l-2.27,6.432h-5.128l10.929-29.215h5.507l10.888,29.215h-5.129L246.836,241.556z
		 M245.491,237.857l-4.918-13.872l-4.919,13.872H245.491z"/>
	<path fill="#59D3A2" d="M277.607,247.987l-7.398-11.854h-3.405v11.854h-4.792V218.31h10.467c3.39,0,5.962,0.827,7.714,2.48
		c1.751,1.654,2.627,3.84,2.627,6.558c0,2.326-0.652,4.231-1.955,5.716c-1.303,1.486-3.188,2.439-5.654,2.859l7.777,12.064H277.607z
		 M266.804,232.728h5.297c3.867,0,5.801-1.709,5.801-5.128c0-1.625-0.47-2.894-1.409-3.804c-0.939-0.911-2.403-1.367-4.392-1.367
		h-5.297V232.728z"/>
	<polygon fill="#59D3A2" points="310.437,218.31 310.437,222.177 302.156,222.177 302.156,247.988 297.322,247.988 297.322,222.177 
		289.083,222.177 289.083,218.31 	"/>
	<path fill="#59D3A2" d="M337.276,235.251c1.135,1.345,1.703,2.929,1.703,4.75c0,2.411-0.82,4.344-2.459,5.801
		c-1.64,1.458-4.015,2.186-7.126,2.186h-11.013v-29.635h10.845c2.971,0,5.227,0.658,6.768,1.975
		c1.541,1.318,2.312,3.125,2.312,5.423c0,1.906-0.511,3.447-1.534,4.624c-1.023,1.177-2.333,1.934-3.93,2.27
		C334.663,233.038,336.142,233.906,337.276,235.251 M322.207,231.342h6.389c1.877,0,3.313-0.434,4.309-1.303
		c0.994-0.868,1.492-2.088,1.492-3.657c0-1.514-0.491-2.704-1.471-3.574c-0.982-0.868-2.48-1.303-4.498-1.303h-6.221V231.342z
		 M333.367,243.406c1.107-0.924,1.66-2.228,1.66-3.909c0-1.653-0.567-2.949-1.702-3.888c-1.135-0.939-2.712-1.409-4.729-1.409
		h-6.389v10.593h6.473C330.698,244.793,332.26,244.331,333.367,243.406"/>
	<rect x="347.975" y="218.352" fill="#59D3A2" width="3.825" height="29.636"/>
	<polygon fill="#59D3A2" points="380.3,218.352 380.3,221.462 371.935,221.462 371.935,247.988 368.11,247.988 368.11,221.462 
		359.745,221.462 359.745,218.352 	"/>
	<path fill="#59D3A2" d="M263.986,180.975c-0.068,0-0.137-0.002-0.207-0.007c-1.558-0.086-2.852-1.234-3.126-2.789l-1.006-5.682
		c-0.112-0.635,0.311-1.24,0.946-1.352c0.639-0.111,1.239,0.311,1.352,0.945l1.005,5.683c0.085,0.484,0.487,0.84,0.977,0.867h0.004
		c0.52,0,0.933-0.309,1.063-0.752l4.777-16.196h7.199c0.469,0,0.885-0.315,1.011-0.765l1.955-6.932l2.676,17.076
		c0.077,0.487,0.489,0.86,0.981,0.888c0.489,0.031,0.944-0.295,1.074-0.774l2.721-9.981h6.693c0.463,0,0.878-0.31,1.009-0.755
		l3.505-11.893l3.163,11.811c0.122,0.46,0.54,0.78,1.015,0.78h13.235l-1.792,1.955c-1.596,1.739-3.813,4.009-6.591,6.746
		c-0.458,0.453-1.196,0.447-1.649-0.012c-0.452-0.458-0.447-1.197,0.012-1.649c1.802-1.776,3.364-3.351,4.668-4.707h-7.883
		c-1.531,0-2.875-1.032-3.269-2.511l-1.017-3.796l-1.16,3.936c-0.421,1.429-1.756,2.427-3.246,2.427h-4.912l-2.252,8.262
		c-0.42,1.54-1.897,2.58-3.459,2.489c-1.577-0.086-2.905-1.287-3.151-2.855l-1.271-8.114c-0.579,0.446-1.301,0.707-2.066,0.707
		h-5.456l-4.283,14.522C266.81,179.977,265.476,180.975,263.986,180.975"/>
	<path fill="#59D3A2" d="M274.16,201.031l-0.782-0.748c-6.607-6.323-28.806-27.633-37.05-36.409l-1.846-1.965h18.205
		c0.438,0,0.834-0.276,0.987-0.686l4.301-11.581l2.264,12.802c0.112,0.634-0.311,1.239-0.946,1.351
		c-0.628,0.114-1.239-0.31-1.352-0.945l-0.768-4.348l-1.312,3.534c-0.492,1.32-1.767,2.206-3.174,2.206h-12.784
		c8.932,9.239,27.42,27.013,34.305,33.606c6.308-5.692,13.176-11.997,18.971-17.419c0.47-0.44,1.208-0.415,1.649,0.055
		c0.439,0.47,0.415,1.209-0.056,1.649c-6.052,5.662-13.272,12.286-19.807,18.173L274.16,201.031z"/>
	<path fill="#59D3A2" d="M316.865,157.877h-12.388l-3.689-13.781c-0.257-0.96-1.121-1.632-2.115-1.645h-0.028
		c-0.982,0-1.849,0.647-2.127,1.591l-4.095,13.892h-5.838c-1,0-1.877,0.67-2.14,1.635l-0.206,0.757l-1.819-11.6
		c-0.161-1.03-1.018-1.808-2.059-1.87c-1.052-0.057-1.984,0.609-2.267,1.613l-2.804,9.954h-6.305c-0.984,0-1.85,0.647-2.128,1.591
		l-2.329,7.899l-4.006-22.651c-0.175-0.986-0.988-1.733-1.984-1.823c-1.006-0.093-1.932,0.499-2.28,1.437l-5.113,13.763h-17.641
		c-2.549-3.851-3.89-8.296-3.89-12.988c0-13.034,10.604-23.639,23.638-23.639c8.069,0,15.502,4.06,19.884,10.86
		c0.408,0.635,1.111,1.017,1.865,1.017s1.456-0.383,1.865-1.017c4.38-6.8,11.813-10.86,19.881-10.86
		c13.035,0,23.64,10.605,23.64,23.639C320.387,150.858,319.915,153.27,316.865,157.877"/>
</g>
</svg>
